<mxfile host="Electron" modified="2023-06-24T03:22:11.522Z" agent="Mozilla/5.0 (Macintosh; Intel Mac OS X 10_15_7) AppleWebKit/537.36 (KHTML, like Gecko) draw.io/21.2.1 Chrome/112.0.5615.87 Electron/24.1.2 Safari/537.36" etag="WuuGDkrgM1N100v-_WqF" version="21.2.1" type="device">
  <diagram id="BNZ6aWsthDTTdj6hufuM" name="Page-1">
    <mxGraphModel dx="1194" dy="574" grid="0" gridSize="10" guides="1" tooltips="1" connect="1" arrows="1" fold="1" page="0" pageScale="1" pageWidth="850" pageHeight="1100" math="0" shadow="0">
      <root>
        <mxCell id="0" />
        <mxCell id="1" parent="0" />
        <mxCell id="IadymlyLoEK6AIMmU8No-1" value="&lt;p style=&quot;margin:0px;margin-top:4px;text-align:center;&quot;&gt;&lt;b&gt;&lt;i&gt;ProductA&lt;/i&gt;&lt;/b&gt;&lt;/p&gt;&lt;hr size=&quot;1&quot;&gt;&lt;p style=&quot;margin:0px;margin-left:4px;&quot;&gt;&lt;i&gt;&lt;br&gt;&lt;/i&gt;&lt;/p&gt;&lt;hr size=&quot;1&quot;&gt;&lt;p style=&quot;margin:0px;margin-left:4px;&quot;&gt;&lt;i&gt;+ method(): void&lt;/i&gt;&lt;/p&gt;" style="verticalAlign=top;align=left;overflow=fill;fontSize=12;fontFamily=Helvetica;html=1;" parent="1" vertex="1">
          <mxGeometry x="160" y="203" width="110" height="77" as="geometry" />
        </mxCell>
        <mxCell id="IadymlyLoEK6AIMmU8No-2" value="&lt;p style=&quot;margin:0px;margin-top:4px;text-align:center;&quot;&gt;&lt;b&gt;ConcreteProductA1&lt;/b&gt;&lt;/p&gt;&lt;hr size=&quot;1&quot;&gt;&lt;p style=&quot;margin:0px;margin-left:4px;&quot;&gt;&lt;br&gt;&lt;/p&gt;&lt;hr size=&quot;1&quot;&gt;&lt;p style=&quot;margin:0px;margin-left:4px;&quot;&gt;+ method(): void&lt;/p&gt;" style="verticalAlign=top;align=left;overflow=fill;fontSize=12;fontFamily=Helvetica;html=1;" parent="1" vertex="1">
          <mxGeometry x="80" y="350" width="130" height="77" as="geometry" />
        </mxCell>
        <mxCell id="IadymlyLoEK6AIMmU8No-3" value="&lt;p style=&quot;margin:0px;margin-top:4px;text-align:center;&quot;&gt;&lt;b&gt;ConcreteProductA2&lt;/b&gt;&lt;/p&gt;&lt;hr size=&quot;1&quot;&gt;&lt;p style=&quot;margin:0px;margin-left:4px;&quot;&gt;&lt;br&gt;&lt;/p&gt;&lt;hr size=&quot;1&quot;&gt;&lt;p style=&quot;margin:0px;margin-left:4px;&quot;&gt;+ method(): void&lt;br&gt;&lt;/p&gt;" style="verticalAlign=top;align=left;overflow=fill;fontSize=12;fontFamily=Helvetica;html=1;" parent="1" vertex="1">
          <mxGeometry x="230" y="350" width="130" height="77" as="geometry" />
        </mxCell>
        <mxCell id="IadymlyLoEK6AIMmU8No-4" value="" style="endArrow=block;endFill=0;endSize=12;html=1;rounded=0;exitX=0.5;exitY=0;exitDx=0;exitDy=0;entryX=0.5;entryY=1;entryDx=0;entryDy=0;" parent="1" source="IadymlyLoEK6AIMmU8No-2" target="IadymlyLoEK6AIMmU8No-1" edge="1">
          <mxGeometry width="160" relative="1" as="geometry">
            <mxPoint x="360" y="423" as="sourcePoint" />
            <mxPoint x="520" y="423" as="targetPoint" />
          </mxGeometry>
        </mxCell>
        <mxCell id="IadymlyLoEK6AIMmU8No-5" value="" style="endArrow=block;endFill=0;endSize=12;html=1;rounded=0;exitX=0.5;exitY=0;exitDx=0;exitDy=0;entryX=0.5;entryY=1;entryDx=0;entryDy=0;" parent="1" source="IadymlyLoEK6AIMmU8No-3" target="IadymlyLoEK6AIMmU8No-1" edge="1">
          <mxGeometry width="160" relative="1" as="geometry">
            <mxPoint x="360" y="423" as="sourcePoint" />
            <mxPoint x="520" y="423" as="targetPoint" />
          </mxGeometry>
        </mxCell>
        <mxCell id="IadymlyLoEK6AIMmU8No-8" value="&lt;p style=&quot;margin:0px;margin-top:4px;text-align:center;&quot;&gt;&lt;b&gt;Client&lt;/b&gt;&lt;/p&gt;&lt;hr size=&quot;1&quot;&gt;&lt;p style=&quot;margin:0px;margin-left:4px;&quot;&gt;&lt;br&gt;&lt;/p&gt;&lt;hr size=&quot;1&quot;&gt;&lt;p style=&quot;margin:0px;margin-left:4px;&quot;&gt;&lt;span style=&quot;background-color: initial;&quot;&gt;+ method1(): void&lt;/span&gt;&lt;br&gt;&lt;/p&gt;&lt;p style=&quot;margin:0px;margin-left:4px;&quot;&gt;+ method2(): void&lt;span style=&quot;background-color: initial;&quot;&gt;&lt;br&gt;&lt;/span&gt;&lt;/p&gt;" style="verticalAlign=top;align=left;overflow=fill;fontSize=12;fontFamily=Helvetica;html=1;" parent="1" vertex="1">
          <mxGeometry x="-110" y="113" width="160" height="100" as="geometry" />
        </mxCell>
        <mxCell id="IadymlyLoEK6AIMmU8No-11" value="&lt;p style=&quot;margin:0px;margin-top:4px;text-align:center;&quot;&gt;&lt;b&gt;&lt;i&gt;ProductB&lt;/i&gt;&lt;/b&gt;&lt;/p&gt;&lt;hr size=&quot;1&quot;&gt;&lt;p style=&quot;margin:0px;margin-left:4px;&quot;&gt;&lt;i&gt;&lt;br&gt;&lt;/i&gt;&lt;/p&gt;&lt;hr size=&quot;1&quot;&gt;&lt;p style=&quot;margin:0px;margin-left:4px;&quot;&gt;&lt;i style=&quot;background-color: initial;&quot;&gt;+ method(): void&lt;/i&gt;&lt;/p&gt;" style="verticalAlign=top;align=left;overflow=fill;fontSize=12;fontFamily=Helvetica;html=1;" parent="1" vertex="1">
          <mxGeometry x="160" y="483" width="110" height="77" as="geometry" />
        </mxCell>
        <mxCell id="IadymlyLoEK6AIMmU8No-12" value="&lt;p style=&quot;margin:0px;margin-top:4px;text-align:center;&quot;&gt;&lt;b&gt;ConcreteProductB1&lt;/b&gt;&lt;/p&gt;&lt;hr size=&quot;1&quot;&gt;&lt;p style=&quot;margin:0px;margin-left:4px;&quot;&gt;&lt;br&gt;&lt;/p&gt;&lt;hr size=&quot;1&quot;&gt;&lt;p style=&quot;margin:0px;margin-left:4px;&quot;&gt;+ method(): void&lt;/p&gt;" style="verticalAlign=top;align=left;overflow=fill;fontSize=12;fontFamily=Helvetica;html=1;" parent="1" vertex="1">
          <mxGeometry x="80" y="643" width="130" height="77" as="geometry" />
        </mxCell>
        <mxCell id="IadymlyLoEK6AIMmU8No-13" value="&lt;p style=&quot;margin:0px;margin-top:4px;text-align:center;&quot;&gt;&lt;b&gt;ConcreteProductB2&lt;/b&gt;&lt;/p&gt;&lt;hr size=&quot;1&quot;&gt;&lt;p style=&quot;margin:0px;margin-left:4px;&quot;&gt;&lt;br&gt;&lt;/p&gt;&lt;hr size=&quot;1&quot;&gt;&lt;p style=&quot;margin:0px;margin-left:4px;&quot;&gt;+ method(): void&lt;/p&gt;" style="verticalAlign=top;align=left;overflow=fill;fontSize=12;fontFamily=Helvetica;html=1;" parent="1" vertex="1">
          <mxGeometry x="230" y="643" width="130" height="77" as="geometry" />
        </mxCell>
        <mxCell id="IadymlyLoEK6AIMmU8No-14" value="" style="endArrow=block;endFill=0;endSize=12;html=1;rounded=0;exitX=0.5;exitY=0;exitDx=0;exitDy=0;entryX=0.5;entryY=1;entryDx=0;entryDy=0;" parent="1" source="IadymlyLoEK6AIMmU8No-12" target="IadymlyLoEK6AIMmU8No-11" edge="1">
          <mxGeometry width="160" relative="1" as="geometry">
            <mxPoint x="360" y="703" as="sourcePoint" />
            <mxPoint x="520" y="703" as="targetPoint" />
          </mxGeometry>
        </mxCell>
        <mxCell id="IadymlyLoEK6AIMmU8No-15" value="" style="endArrow=block;endFill=0;endSize=12;html=1;rounded=0;exitX=0.5;exitY=0;exitDx=0;exitDy=0;entryX=0.5;entryY=1;entryDx=0;entryDy=0;" parent="1" source="IadymlyLoEK6AIMmU8No-13" target="IadymlyLoEK6AIMmU8No-11" edge="1">
          <mxGeometry width="160" relative="1" as="geometry">
            <mxPoint x="360" y="703" as="sourcePoint" />
            <mxPoint x="520" y="703" as="targetPoint" />
          </mxGeometry>
        </mxCell>
        <mxCell id="IadymlyLoEK6AIMmU8No-16" value="&lt;p style=&quot;margin:0px;margin-top:4px;text-align:center;&quot;&gt;&lt;b&gt;&lt;i&gt;Factory&lt;/i&gt;&lt;/b&gt;&lt;/p&gt;&lt;hr size=&quot;1&quot;&gt;&lt;p style=&quot;margin:0px;margin-left:4px;&quot;&gt;&lt;br&gt;&lt;/p&gt;&lt;hr size=&quot;1&quot;&gt;&lt;p style=&quot;margin: 0px 0px 0px 4px;&quot;&gt;&lt;i&gt;+ createProductA(): ProductA&lt;/i&gt;&lt;/p&gt;&lt;p style=&quot;margin: 0px 0px 0px 4px;&quot;&gt;&lt;i&gt;+ createProductB(): ProductB&lt;/i&gt;&lt;/p&gt;" style="verticalAlign=top;align=left;overflow=fill;fontSize=12;fontFamily=Helvetica;html=1;" parent="1" vertex="1">
          <mxGeometry x="500" y="303" width="180" height="97" as="geometry" />
        </mxCell>
        <mxCell id="IadymlyLoEK6AIMmU8No-17" value="&lt;p style=&quot;margin:0px;margin-top:4px;text-align:center;&quot;&gt;&lt;b&gt;ConcreteFactory1&lt;/b&gt;&lt;/p&gt;&lt;hr size=&quot;1&quot;&gt;&lt;p style=&quot;margin:0px;margin-left:4px;&quot;&gt;&lt;br&gt;&lt;/p&gt;&lt;hr size=&quot;1&quot;&gt;&lt;p style=&quot;margin: 0px 0px 0px 4px;&quot;&gt;+ createProductA(): ProductA&lt;/p&gt;&lt;p style=&quot;margin: 0px 0px 0px 4px;&quot;&gt;+ createProductB(): ProductB&lt;/p&gt;" style="verticalAlign=top;align=left;overflow=fill;fontSize=12;fontFamily=Helvetica;html=1;" parent="1" vertex="1">
          <mxGeometry x="600" y="473" width="170" height="90" as="geometry" />
        </mxCell>
        <mxCell id="IadymlyLoEK6AIMmU8No-18" value="&lt;p style=&quot;margin:0px;margin-top:4px;text-align:center;&quot;&gt;&lt;b&gt;ConcreteFactory2&lt;/b&gt;&lt;/p&gt;&lt;hr size=&quot;1&quot;&gt;&lt;p style=&quot;margin:0px;margin-left:4px;&quot;&gt;&lt;br&gt;&lt;/p&gt;&lt;hr size=&quot;1&quot;&gt;&lt;p style=&quot;margin: 0px 0px 0px 4px;&quot;&gt;+ createProductA(): ProductA&lt;/p&gt;&lt;p style=&quot;margin: 0px 0px 0px 4px;&quot;&gt;+ createProductB(): ProductB&lt;/p&gt;" style="verticalAlign=top;align=left;overflow=fill;fontSize=12;fontFamily=Helvetica;html=1;" parent="1" vertex="1">
          <mxGeometry x="420" y="473" width="170" height="90" as="geometry" />
        </mxCell>
        <mxCell id="IadymlyLoEK6AIMmU8No-19" value="" style="endArrow=block;endFill=0;endSize=12;html=1;rounded=0;exitX=0.5;exitY=0;exitDx=0;exitDy=0;entryX=0.5;entryY=1;entryDx=0;entryDy=0;" parent="1" source="IadymlyLoEK6AIMmU8No-17" target="IadymlyLoEK6AIMmU8No-16" edge="1">
          <mxGeometry width="160" relative="1" as="geometry">
            <mxPoint x="340" y="583" as="sourcePoint" />
            <mxPoint x="500" y="583" as="targetPoint" />
          </mxGeometry>
        </mxCell>
        <mxCell id="IadymlyLoEK6AIMmU8No-20" value="" style="endArrow=block;endFill=0;endSize=12;html=1;rounded=0;exitX=0.5;exitY=0;exitDx=0;exitDy=0;entryX=0.5;entryY=1;entryDx=0;entryDy=0;" parent="1" source="IadymlyLoEK6AIMmU8No-18" target="IadymlyLoEK6AIMmU8No-16" edge="1">
          <mxGeometry width="160" relative="1" as="geometry">
            <mxPoint x="340" y="583" as="sourcePoint" />
            <mxPoint x="500" y="583" as="targetPoint" />
          </mxGeometry>
        </mxCell>
        <mxCell id="IadymlyLoEK6AIMmU8No-26" value="" style="html=1;verticalAlign=bottom;endArrow=open;dashed=1;endSize=12;rounded=0;exitX=0;exitY=0.5;exitDx=0;exitDy=0;entryX=1;entryY=0.5;entryDx=0;entryDy=0;edgeStyle=orthogonalEdgeStyle;" parent="1" source="IadymlyLoEK6AIMmU8No-18" target="IadymlyLoEK6AIMmU8No-3" edge="1">
          <mxGeometry relative="1" as="geometry">
            <mxPoint x="440" y="433" as="sourcePoint" />
            <mxPoint x="360" y="433" as="targetPoint" />
          </mxGeometry>
        </mxCell>
        <mxCell id="IadymlyLoEK6AIMmU8No-27" value="" style="html=1;verticalAlign=bottom;endArrow=open;dashed=1;endSize=12;rounded=0;exitX=0;exitY=0.5;exitDx=0;exitDy=0;entryX=1;entryY=0.5;entryDx=0;entryDy=0;edgeStyle=orthogonalEdgeStyle;" parent="1" source="IadymlyLoEK6AIMmU8No-18" target="IadymlyLoEK6AIMmU8No-13" edge="1">
          <mxGeometry relative="1" as="geometry">
            <mxPoint x="440" y="433" as="sourcePoint" />
            <mxPoint x="360" y="433" as="targetPoint" />
          </mxGeometry>
        </mxCell>
        <mxCell id="IadymlyLoEK6AIMmU8No-28" value="" style="html=1;verticalAlign=bottom;endArrow=open;dashed=1;endSize=12;rounded=0;exitX=0.5;exitY=1;exitDx=0;exitDy=0;entryX=0;entryY=0.5;entryDx=0;entryDy=0;edgeStyle=orthogonalEdgeStyle;" parent="1" source="IadymlyLoEK6AIMmU8No-17" target="IadymlyLoEK6AIMmU8No-2" edge="1">
          <mxGeometry x="0.9412" relative="1" as="geometry">
            <mxPoint x="370" y="473" as="sourcePoint" />
            <mxPoint x="290" y="473" as="targetPoint" />
            <Array as="points">
              <mxPoint x="685" y="750" />
              <mxPoint x="10" y="750" />
              <mxPoint x="10" y="389" />
            </Array>
            <mxPoint as="offset" />
          </mxGeometry>
        </mxCell>
        <mxCell id="IadymlyLoEK6AIMmU8No-29" value="" style="html=1;verticalAlign=bottom;endArrow=open;dashed=1;endSize=12;rounded=0;exitX=0.5;exitY=1;exitDx=0;exitDy=0;entryX=0;entryY=0.5;entryDx=0;entryDy=0;edgeStyle=orthogonalEdgeStyle;" parent="1" source="IadymlyLoEK6AIMmU8No-17" target="IadymlyLoEK6AIMmU8No-12" edge="1">
          <mxGeometry x="0.9231" relative="1" as="geometry">
            <mxPoint x="370" y="473" as="sourcePoint" />
            <mxPoint x="290" y="473" as="targetPoint" />
            <Array as="points">
              <mxPoint x="685" y="750" />
              <mxPoint x="10" y="750" />
              <mxPoint x="10" y="682" />
            </Array>
            <mxPoint as="offset" />
          </mxGeometry>
        </mxCell>
        <mxCell id="IadymlyLoEK6AIMmU8No-30" value="" style="endArrow=open;endSize=12;dashed=1;html=1;rounded=0;exitX=0.5;exitY=1;exitDx=0;exitDy=0;entryX=0;entryY=0.5;entryDx=0;entryDy=0;edgeStyle=orthogonalEdgeStyle;" parent="1" source="IadymlyLoEK6AIMmU8No-8" target="IadymlyLoEK6AIMmU8No-1" edge="1">
          <mxGeometry width="160" relative="1" as="geometry">
            <mxPoint x="250" y="473" as="sourcePoint" />
            <mxPoint x="410" y="473" as="targetPoint" />
          </mxGeometry>
        </mxCell>
        <mxCell id="IadymlyLoEK6AIMmU8No-31" value="" style="endArrow=open;endSize=12;dashed=1;html=1;rounded=0;exitX=0.5;exitY=1;exitDx=0;exitDy=0;entryX=0;entryY=0.5;entryDx=0;entryDy=0;edgeStyle=orthogonalEdgeStyle;" parent="1" source="IadymlyLoEK6AIMmU8No-8" target="IadymlyLoEK6AIMmU8No-11" edge="1">
          <mxGeometry x="0.6436" y="5" width="160" relative="1" as="geometry">
            <mxPoint x="250" y="473" as="sourcePoint" />
            <mxPoint x="410" y="473" as="targetPoint" />
            <mxPoint as="offset" />
          </mxGeometry>
        </mxCell>
        <mxCell id="_X3vK877zX9WBU0hhVPi-1" value="" style="endArrow=open;endSize=12;dashed=1;html=1;rounded=0;exitX=1;exitY=0.25;exitDx=0;exitDy=0;entryX=0.5;entryY=0;entryDx=0;entryDy=0;edgeStyle=orthogonalEdgeStyle;" parent="1" source="IadymlyLoEK6AIMmU8No-8" target="IadymlyLoEK6AIMmU8No-16" edge="1">
          <mxGeometry width="160" relative="1" as="geometry">
            <mxPoint x="250" y="440" as="sourcePoint" />
            <mxPoint x="410" y="440" as="targetPoint" />
          </mxGeometry>
        </mxCell>
      </root>
    </mxGraphModel>
  </diagram>
</mxfile>
